<svg xmlns="http://www.w3.org/2000/svg" xmlns:xlink="http://www.w3.org/1999/xlink" width="500" zoomAndPan="magnify" viewBox="0 0 375 149.999998" height="200" preserveAspectRatio="xMidYMid meet" version="1.0"><defs><g/><clipPath id="3172c6509d"><path d="M 150.765625 42.199219 L 196.515625 42.199219 L 196.515625 102.199219 L 150.765625 102.199219 Z M 150.765625 42.199219 " clip-rule="nonzero"/></clipPath><clipPath id="52c5bb0b31"><path d="M 83.546875 45 L 143 45 L 143 105 L 83.546875 105 Z M 83.546875 45 " clip-rule="nonzero"/></clipPath><clipPath id="6d6c9714b9"><path d="M 186.078125 77.34375 L 192.078125 77.34375 L 192.078125 101.34375 L 186.078125 101.34375 Z M 186.078125 77.34375 " clip-rule="nonzero"/></clipPath></defs><g fill="#000000" fill-opacity="1"><g transform="translate(15.000002, 101.190852)"><g><path d="M 23.421875 0.785156 L 30.300781 0.957031 L 32.042969 0.785156 L 33.785156 0.347656 L 35.523438 0.0859375 L 37.265625 -0.609375 L 38.832031 -0.785156 L 40.488281 -1.566406 L 46.410156 -5.136719 L 48.933594 -7.75 L 49.804688 -8.96875 L 50.761719 -10.882812 L 51.285156 -12.449219 L 51.808594 -13.929688 L 52.328125 -18.285156 L 52.15625 -21.070312 L 50.847656 -26.121094 L 49.890625 -27.515625 L 47.628906 -30.125 L 46.058594 -31.519531 L 44.667969 -32.214844 L 43.101562 -33.171875 L 36.308594 -35.261719 L 34.566406 -35.523438 L 32.824219 -35.613281 L 30.996094 -35.960938 L 28.472656 -35.960938 L 23.855469 -36.917969 L 20.636719 -38.484375 L 19.328125 -39.703125 L 18.980469 -42.316406 L 19.417969 -44.667969 L 20.460938 -45.800781 L 21.765625 -46.757812 L 23.160156 -47.539062 L 24.726562 -47.886719 L 27.515625 -47.976562 L 30.300781 -47.628906 L 31.867188 -47.191406 L 33.433594 -46.148438 L 34.914062 -44.929688 L 36.222656 -43.1875 L 38.136719 -42.054688 L 42.230469 -42.402344 L 44.578125 -42.230469 L 46.320312 -42.230469 L 47.886719 -42.054688 L 49.542969 -43.273438 L 50.238281 -44.753906 L 49.890625 -46.410156 L 49.71875 -48.0625 L 47.277344 -52.589844 L 45.363281 -55.203125 L 39.617188 -59.207031 L 34.742188 -60.863281 L 31.34375 -61.558594 L 24.640625 -61.734375 L 22.726562 -61.210938 L 20.984375 -61.125 L 19.417969 -60.863281 L 16.109375 -59.816406 L 13.148438 -58.074219 L 8.96875 -55.203125 L 5.921875 -51.109375 L 4.351562 -46.320312 L 4.09375 -42.054688 L 4.179688 -39.355469 L 4.789062 -35.871094 L 6.183594 -32.824219 L 9.402344 -28.820312 L 15.324219 -25.597656 L 18.457031 -24.554688 L 32.128906 -22.988281 L 35.261719 -21.507812 L 36.394531 -20.460938 L 36.917969 -18.285156 L 36.222656 -16.109375 L 35.089844 -14.800781 L 32.128906 -13.496094 L 29.429688 -13.320312 L 27.863281 -13.058594 L 23.421875 -13.496094 L 21.941406 -14.28125 L 20.460938 -15.238281 L 17.589844 -18.371094 L 15.847656 -19.070312 L 14.28125 -18.894531 L 12.625 -19.15625 L 5.921875 -18.808594 L 4.351562 -18.109375 L 3.65625 -16.28125 L 3.917969 -14.539062 L 4.265625 -12.800781 L 4.789062 -11.230469 L 6.441406 -8.011719 L 7.664062 -6.878906 L 8.792969 -5.574219 L 11.839844 -3.65625 L 13.058594 -2.351562 L 14.714844 -1.566406 L 16.457031 -1.042969 L 19.851562 0.175781 Z M 23.421875 0.785156 "/></g></g></g><g fill="#000000" fill-opacity="1"><g transform="translate(72.281382, 101.190852)"><g/></g></g><g fill="#000000" fill-opacity="1"><g transform="translate(97.614883, 101.190852)"><g/></g></g><g fill="#000000" fill-opacity="1"><g transform="translate(122.948383, 101.190852)"><g/></g></g><g fill="#000000" fill-opacity="1"><g transform="translate(148.281886, 101.190852)"><g/></g></g><g fill="#000000" fill-opacity="1"><g transform="translate(173.615386, 101.190852)"><g/></g></g><g fill="#000000" fill-opacity="1"><g transform="translate(198.938322, 101.190852)"><g><path d="M 29.167969 0.347656 L 32.652344 0.175781 L 34.21875 -0.695312 L 35.089844 -2.351562 L 35.089844 -10.972656 L 34.042969 -12.625 L 32.128906 -13.582031 L 30.300781 -13.582031 L 28.210938 -14.28125 L 27.164062 -16.28125 L 27.425781 -17.9375 L 27.339844 -27.515625 L 27.515625 -29.429688 L 27.164062 -35.699219 L 27.515625 -44.492188 L 28.125 -46.496094 L 30.039062 -47.277344 L 31.78125 -47.539062 L 33.609375 -48.238281 L 34.480469 -49.628906 L 34.566406 -58.25 L 33.523438 -59.90625 L 31.953125 -60.863281 L 21.417969 -60.863281 L 19.851562 -61.035156 L 18.109375 -60.6875 L 10.972656 -60.6875 L 9.316406 -60.949219 L 7.3125 -60.949219 L 5.574219 -60.078125 L 4.703125 -57.988281 L 4.964844 -51.546875 L 4.789062 -49.890625 L 5.746094 -48.148438 L 7.664062 -47.191406 L 9.402344 -47.191406 L 11.058594 -46.148438 L 11.839844 -43.796875 L 12.101562 -17.066406 L 11.144531 -14.453125 L 5.398438 -12.710938 L 4.441406 -11.144531 L 4.179688 -3.132812 L 5.050781 -0.785156 L 6.792969 0 L 8.445312 0 L 10.101562 -0.175781 L 12.625 0.175781 L 15.324219 0.0859375 L 17.066406 -0.0859375 L 20.546875 0.261719 L 23.160156 -0.0859375 L 27.425781 -0.0859375 Z M 29.167969 0.347656 "/></g></g></g><g fill="#000000" fill-opacity="1"><g transform="translate(240.202949, 101.190852)"><g><path d="M 23.421875 0.785156 L 30.300781 0.957031 L 32.042969 0.785156 L 33.785156 0.347656 L 35.523438 0.0859375 L 37.265625 -0.609375 L 38.832031 -0.785156 L 40.488281 -1.566406 L 46.410156 -5.136719 L 48.933594 -7.75 L 49.804688 -8.96875 L 50.761719 -10.882812 L 51.285156 -12.449219 L 51.808594 -13.929688 L 52.328125 -18.285156 L 52.15625 -21.070312 L 50.847656 -26.121094 L 49.890625 -27.515625 L 47.628906 -30.125 L 46.058594 -31.519531 L 44.667969 -32.214844 L 43.101562 -33.171875 L 36.308594 -35.261719 L 34.566406 -35.523438 L 32.824219 -35.613281 L 30.996094 -35.960938 L 28.472656 -35.960938 L 23.855469 -36.917969 L 20.636719 -38.484375 L 19.328125 -39.703125 L 18.980469 -42.316406 L 19.417969 -44.667969 L 20.460938 -45.800781 L 21.765625 -46.757812 L 23.160156 -47.539062 L 24.726562 -47.886719 L 27.515625 -47.976562 L 30.300781 -47.628906 L 31.867188 -47.191406 L 33.433594 -46.148438 L 34.914062 -44.929688 L 36.222656 -43.1875 L 38.136719 -42.054688 L 42.230469 -42.402344 L 44.578125 -42.230469 L 46.320312 -42.230469 L 47.886719 -42.054688 L 49.542969 -43.273438 L 50.238281 -44.753906 L 49.890625 -46.410156 L 49.71875 -48.0625 L 47.277344 -52.589844 L 45.363281 -55.203125 L 39.617188 -59.207031 L 34.742188 -60.863281 L 31.34375 -61.558594 L 24.640625 -61.734375 L 22.726562 -61.210938 L 20.984375 -61.125 L 19.417969 -60.863281 L 16.109375 -59.816406 L 13.148438 -58.074219 L 8.96875 -55.203125 L 5.921875 -51.109375 L 4.351562 -46.320312 L 4.09375 -42.054688 L 4.179688 -39.355469 L 4.789062 -35.871094 L 6.183594 -32.824219 L 9.402344 -28.820312 L 15.324219 -25.597656 L 18.457031 -24.554688 L 32.128906 -22.988281 L 35.261719 -21.507812 L 36.394531 -20.460938 L 36.917969 -18.285156 L 36.222656 -16.109375 L 35.089844 -14.800781 L 32.128906 -13.496094 L 29.429688 -13.320312 L 27.863281 -13.058594 L 23.421875 -13.496094 L 21.941406 -14.28125 L 20.460938 -15.238281 L 17.589844 -18.371094 L 15.847656 -19.070312 L 14.28125 -18.894531 L 12.625 -19.15625 L 5.921875 -18.808594 L 4.351562 -18.109375 L 3.65625 -16.28125 L 3.917969 -14.539062 L 4.265625 -12.800781 L 4.789062 -11.230469 L 6.441406 -8.011719 L 7.664062 -6.878906 L 8.792969 -5.574219 L 11.839844 -3.65625 L 13.058594 -2.351562 L 14.714844 -1.566406 L 16.457031 -1.042969 L 19.851562 0.175781 Z M 23.421875 0.785156 "/></g></g></g><g fill="#000000" fill-opacity="1"><g transform="translate(297.485772, 101.190852)"><g><path d="M 22.726562 0.175781 L 28.558594 0 L 31.085938 -0.871094 L 31.953125 -3.308594 L 32.214844 -7.835938 L 31.953125 -11.144531 L 32.128906 -12.972656 L 32.042969 -16.457031 L 32.214844 -18.023438 L 31.953125 -19.9375 L 32.128906 -33.957031 L 31.867188 -35.785156 L 32.128906 -43.359375 L 32.824219 -45.972656 L 34.480469 -47.019531 L 37.875 -47.191406 L 41.097656 -46.757812 L 42.925781 -47.019531 L 44.492188 -46.929688 L 45.972656 -47.886719 L 47.019531 -49.804688 L 47.105469 -58.074219 L 46.148438 -59.816406 L 44.492188 -60.949219 L 39.09375 -60.949219 L 37.441406 -61.125 L 35.613281 -60.863281 L 33.957031 -61.035156 L 26.90625 -60.6875 L 25.164062 -61.035156 L 23.507812 -61.125 L 21.679688 -60.863281 L 19.765625 -61.035156 L 18.199219 -60.6875 L 13.058594 -60.949219 L 10.363281 -60.6875 L 4.265625 -61.035156 L 2.613281 -60.164062 L 1.566406 -58.164062 L 1.65625 -56.421875 L 1.480469 -52.066406 L 1.65625 -49.367188 L 2.4375 -47.800781 L 4.003906 -46.929688 L 5.746094 -47.105469 L 14.019531 -46.929688 L 15.671875 -46.058594 L 16.628906 -44.320312 L 16.457031 -41.53125 L 16.628906 -39.09375 L 16.542969 -37.179688 L 16.628906 -35.4375 L 16.457031 -33 L 16.71875 -20.027344 L 16.542969 -18.285156 L 16.457031 -11.230469 L 16.628906 -9.402344 L 16.542969 -4.351562 L 16.371094 -2.699219 L 17.5 -0.785156 L 20.027344 0.0859375 Z M 22.726562 0.175781 "/></g></g></g><g clip-path="url(#3172c6509d)"><path fill="#004aad" d="M 157.625 42.214844 C 153.855469 42.214844 150.765625 45.332031 150.765625 49.132812 C 150.765625 52.125 152.695312 54.664062 155.339844 55.621094 L 155.339844 88.773438 C 152.695312 89.730469 150.765625 92.269531 150.765625 95.261719 C 150.765625 99.0625 153.855469 102.179688 157.625 102.179688 C 161.398438 102.179688 164.488281 99.0625 164.488281 95.261719 C 164.488281 92.269531 162.558594 89.730469 159.914062 88.773438 L 159.914062 83.730469 C 159.914062 78.484375 161.558594 76.847656 164.417969 75.691406 C 167.257812 74.539062 171.621094 74.503906 175.925781 74.503906 C 180 74.503906 183.96875 73.855469 187.078125 71.367188 C 190.167969 68.898438 191.9375 64.71875 191.9375 58.9375 L 191.9375 55.621094 C 194.582031 54.664062 196.515625 52.125 196.515625 49.132812 C 196.515625 45.332031 193.421875 42.214844 189.652344 42.214844 C 185.878906 42.214844 182.789062 45.332031 182.789062 49.132812 C 182.789062 52.125 184.71875 54.664062 187.363281 55.621094 L 187.363281 58.9375 C 187.363281 63.835938 186.09375 66.269531 184.21875 67.765625 C 182.359375 69.261719 179.484375 69.890625 175.925781 69.890625 C 171.65625 69.890625 166.867188 69.730469 162.703125 71.40625 C 161.71875 71.820312 160.773438 72.359375 159.914062 73.0625 L 159.914062 55.621094 C 162.558594 54.664062 164.488281 52.125 164.488281 49.132812 C 164.488281 45.332031 161.398438 42.214844 157.625 42.214844 Z M 157.625 46.828125 C 158.914062 46.828125 159.914062 47.835938 159.914062 49.132812 C 159.914062 50.433594 158.914062 51.441406 157.625 51.441406 C 156.339844 51.441406 155.339844 50.433594 155.339844 49.132812 C 155.339844 47.835938 156.339844 46.828125 157.625 46.828125 Z M 189.652344 46.828125 C 190.9375 46.828125 191.9375 47.835938 191.9375 49.132812 C 191.9375 50.433594 190.9375 51.441406 189.652344 51.441406 C 188.363281 51.441406 187.363281 50.433594 187.363281 49.132812 C 187.363281 47.835938 188.363281 46.828125 189.652344 46.828125 Z M 157.625 92.953125 C 158.914062 92.953125 159.914062 93.964844 159.914062 95.261719 C 159.914062 96.558594 158.914062 97.566406 157.625 97.566406 C 156.339844 97.566406 155.339844 96.558594 155.339844 95.261719 C 155.339844 93.964844 156.339844 92.953125 157.625 92.953125 Z M 157.625 92.953125 " fill-opacity="1" fill-rule="nonzero"/></g><g clip-path="url(#52c5bb0b31)"><path fill="#38b6ff" d="M 134.226562 53.804688 C 122.640625 42.199219 103.851562 42.199219 92.265625 53.804688 C 90.863281 52.402344 88.464844 53.128906 88.078125 55.074219 L 86.4375 63.285156 C 86.089844 65.023438 87.621094 66.558594 89.355469 66.210938 L 97.554688 64.566406 C 99.496094 64.179688 100.222656 61.777344 98.820312 60.375 C 106.773438 52.40625 119.71875 52.40625 127.671875 60.375 C 135.65625 68.371094 135.65625 81.273438 127.671875 89.273438 C 119.714844 97.238281 106.773438 97.238281 98.820312 89.269531 C 94.84375 85.289062 92.855469 80.054688 92.855469 74.824219 L 92.847656 74.824219 C 92.847656 72.242188 90.746094 70.15625 88.167969 70.179688 C 85.609375 70.203125 83.566406 72.347656 83.574219 74.910156 C 83.597656 82.488281 86.492188 90.058594 92.265625 95.839844 C 103.851562 107.445312 122.640625 107.445312 134.226562 95.839844 C 145.785156 84.261719 145.785156 65.382812 134.226562 53.804688 Z M 134.226562 53.804688 " fill-opacity="1" fill-rule="nonzero"/></g><path fill="#38b6ff" d="M 122.605469 76.214844 L 116.722656 72.8125 L 116.722656 62.523438 C 116.722656 60.601562 115.167969 59.042969 113.246094 59.042969 C 111.324219 59.042969 109.769531 60.601562 109.769531 62.523438 L 109.769531 74.824219 C 109.769531 76.113281 110.46875 77.234375 111.507812 77.839844 L 119.128906 82.246094 C 120.789062 83.207031 122.917969 82.636719 123.878906 80.972656 C 124.839844 79.304688 124.269531 77.175781 122.605469 76.214844 Z M 122.605469 76.214844 " fill-opacity="1" fill-rule="nonzero"/><g clip-path="url(#6d6c9714b9)"><path fill="#000000" d="M 192.03125 -467.300781 L 192.03125 107.859375 L 186.058594 107.859375 L 186.058594 -467.300781 L 192.03125 -467.300781 " fill-opacity="1" fill-rule="nonzero"/></g></svg>